<svg xmlns="http://www.w3.org/2000/svg" width="1200" height="420" viewBox="0 0 1200 420">
  <rect width="1200" height="420" fill="#020810"/>
  <!-- Subtle grid lines -->
  <line x1="0" y1="140" x2="1200" y2="140" stroke="#0d1f3a" stroke-width="1"/>
  <line x1="0" y1="280" x2="1200" y2="280" stroke="#0d1f3a" stroke-width="1"/>
  <line x1="400" y1="0" x2="400" y2="420" stroke="#0d1f3a" stroke-width="1"/>
  <line x1="800" y1="0" x2="800" y2="420" stroke="#0d1f3a" stroke-width="1"/>
  <!-- Accent bar -->
  <rect x="0" y="0" width="6" height="420" fill="#0066FF"/>
  <!-- Icon: stacked circles representing savings layers -->
  <ellipse cx="900" cy="210" rx="140" ry="40" fill="none" stroke="#1e3a5f" stroke-width="2"/>
  <ellipse cx="900" cy="170" rx="140" ry="40" fill="none" stroke="#1e3a5f" stroke-width="2"/>
  <ellipse cx="900" cy="130" rx="140" ry="40" fill="#0d1f3a" stroke="#0066FF" stroke-width="2"/>
  <ellipse cx="900" cy="130" rx="140" ry="40" fill="none" stroke="#0066FF" stroke-width="2"/>
  <!-- Building/workplace icon simplified -->
  <rect x="820" y="220" width="160" height="90" fill="#0d1f3a" stroke="#1e3a5f" stroke-width="1.5"/>
  <rect x="840" y="240" width="30" height="30" fill="#1a3a6b" stroke="#2a5298" stroke-width="1"/>
  <rect x="885" y="240" width="30" height="30" fill="#1a3a6b" stroke="#2a5298" stroke-width="1"/>
  <rect x="930" y="240" width="30" height="30" fill="#1a3a6b" stroke="#2a5298" stroke-width="1"/>
  <rect x="880" y="270" width="40" height="40" fill="#0d1f3a" stroke="#1e3a5f" stroke-width="1"/>
  <!-- Text -->
  <text x="80" y="155" font-family="Inter, system-ui, sans-serif" font-size="52" font-weight="700" fill="#f0f6ff" letter-spacing="-1">DEWS &amp;</text>
  <text x="80" y="220" font-family="Inter, system-ui, sans-serif" font-size="52" font-weight="700" fill="#f0f6ff" letter-spacing="-1">the Savings Gap</text>
  <text x="80" y="275" font-family="Inter, system-ui, sans-serif" font-size="22" fill="#6b9fd4" letter-spacing="0.5">What UAE Expats Miss About Workplace Savings</text>
  <!-- Vault brand -->
  <text x="80" y="370" font-family="Inter, system-ui, sans-serif" font-size="18" fill="#0066FF" font-weight="600" letter-spacing="2">VAULT · VLT.MONEY</text>
</svg>
