<svg width="1200" height="420" viewBox="0 0 1200 420" xmlns="http://www.w3.org/2000/svg">
  <defs>
    <linearGradient id="lineGrad" x1="0%" y1="0%" x2="100%" y2="0%">
      <stop offset="0%" style="stop-color:#003D99;stop-opacity:0.4" />
      <stop offset="100%" style="stop-color:#0066FF;stop-opacity:1" />
    </linearGradient>
    <linearGradient id="barGrad" x1="0%" y1="0%" x2="0%" y2="100%">
      <stop offset="0%" style="stop-color:#0066FF;stop-opacity:0.9" />
      <stop offset="100%" style="stop-color:#003D99;stop-opacity:0.5" />
    </linearGradient>
    <linearGradient id="glowLine" x1="0%" y1="0%" x2="100%" y2="0%">
      <stop offset="0%" style="stop-color:#0066FF;stop-opacity:0" />
      <stop offset="50%" style="stop-color:#0066FF;stop-opacity:1" />
      <stop offset="100%" style="stop-color:#0066FF;stop-opacity:0" />
    </linearGradient>
    <filter id="glow">
      <feGaussianBlur stdDeviation="3" result="coloredBlur"/>
      <feMerge>
        <feMergeNode in="coloredBlur"/>
        <feMergeNode in="SourceGraphic"/>
      </feMerge>
    </filter>
  </defs>

  <!-- Background -->
  <rect width="1200" height="420" fill="#020810"/>

  <!-- Subtle grid lines -->
  <line x1="0" y1="105" x2="1200" y2="105" stroke="rgba(255,255,255,0.04)" stroke-width="1"/>
  <line x1="0" y1="210" x2="1200" y2="210" stroke="rgba(255,255,255,0.04)" stroke-width="1"/>
  <line x1="0" y1="315" x2="1200" y2="315" stroke="rgba(255,255,255,0.04)" stroke-width="1"/>
  <line x1="200" y1="0" x2="200" y2="420" stroke="rgba(255,255,255,0.04)" stroke-width="1"/>
  <line x1="400" y1="0" x2="400" y2="420" stroke="rgba(255,255,255,0.04)" stroke-width="1"/>
  <line x1="600" y1="0" x2="600" y2="420" stroke="rgba(255,255,255,0.04)" stroke-width="1"/>
  <line x1="800" y1="0" x2="800" y2="420" stroke="rgba(255,255,255,0.04)" stroke-width="1"/>
  <line x1="1000" y1="0" x2="1000" y2="420" stroke="rgba(255,255,255,0.04)" stroke-width="1"/>

  <!-- Chart bars — institutional AUM growth (illustrative) -->
  <rect x="120" y="280" width="50" height="80" fill="url(#barGrad)" rx="4"/>
  <rect x="220" y="240" width="50" height="120" fill="url(#barGrad)" rx="4"/>
  <rect x="320" y="200" width="50" height="160" fill="url(#barGrad)" rx="4"/>
  <rect x="420" y="160" width="50" height="200" fill="url(#barGrad)" rx="4"/>
  <rect x="520" y="110" width="50" height="250" fill="url(#barGrad)" rx="4"/>

  <!-- Rising trend line -->
  <polyline points="145,280 245,240 345,200 445,155 545,105" fill="none" stroke="url(#lineGrad)" stroke-width="3" filter="url(#glow)"/>

  <!-- Endpoint dot -->
  <circle cx="545" cy="105" r="7" fill="#0066FF" filter="url(#glow)"/>
  <circle cx="545" cy="105" r="3" fill="white"/>

  <!-- $967M label near top of chart -->
  <rect x="558" y="85" width="90" height="26" rx="4" fill="rgba(0,102,255,0.1)" stroke="rgba(0,102,255,0.25)" stroke-width="1"/>
  <text x="603" y="103" font-family="Inter, system-ui, sans-serif" font-size="13" font-weight="600" fill="#0066FF" text-anchor="middle">$967M</text>

  <!-- Right side: text content -->
  <!-- Main headline -->
  <text x="720" y="140" font-family="Inter, system-ui, sans-serif" font-size="13" fill="#0066FF" letter-spacing="3" font-weight="500">INSTITUTIONAL VALIDATION</text>

  <text x="720" y="195" font-family="Inter, system-ui, sans-serif" font-size="36" font-weight="700" fill="white">Wall Street Goes</text>
  <text x="720" y="240" font-family="Inter, system-ui, sans-serif" font-size="36" font-weight="700" fill="white">Onchain</text>

  <text x="720" y="285" font-family="Inter, system-ui, sans-serif" font-size="17" fill="#9CA3AF" font-weight="400">What the Invesco/$967M deal means</text>
  <text x="720" y="308" font-family="Inter, system-ui, sans-serif" font-size="17" fill="#9CA3AF" font-weight="400">for UAE savers</text>

  <!-- Divider line -->
  <line x1="720" y1="330" x2="960" y2="330" stroke="rgba(255,255,255,0.08)" stroke-width="1"/>

  <!-- Invesco stat -->
  <text x="720" y="358" font-family="Inter, system-ui, sans-serif" font-size="13" fill="#6B7280">Invesco</text>
  <text x="800" y="358" font-family="Inter, system-ui, sans-serif" font-size="13" font-weight="700" fill="#0066FF">$2.2T AUM</text>
  <text x="885" y="358" font-family="Inter, system-ui, sans-serif" font-size="13" fill="#6B7280">— March 24, 2026</text>

  <!-- vlt.money badge -->
  <rect x="720" y="375" width="90" height="28" rx="14" fill="rgba(0,102,255,0.1)" stroke="rgba(0,102,255,0.25)" stroke-width="1"/>
  <text x="765" y="394" font-family="Inter, system-ui, sans-serif" font-size="13" fill="#0066FF" text-anchor="middle" font-weight="600">vlt.money</text>

  <!-- Horizontal glow accent -->
  <rect x="0" y="419" width="1200" height="1" fill="url(#glowLine)" opacity="0.5"/>
</svg>
