<svg width="1200" height="420" viewBox="0 0 1200 420" fill="none" xmlns="http://www.w3.org/2000/svg">
  <!-- Background -->
  <rect width="1200" height="420" fill="#020810"/>

  <!-- Subtle grid lines -->
  <line x1="0" y1="140" x2="1200" y2="140" stroke="#0d1a2e" stroke-width="1"/>
  <line x1="0" y1="280" x2="1200" y2="280" stroke="#0d1a2e" stroke-width="1"/>
  <line x1="400" y1="0" x2="400" y2="420" stroke="#0d1a2e" stroke-width="1"/>
  <line x1="800" y1="0" x2="800" y2="420" stroke="#0d1a2e" stroke-width="1"/>

  <!-- Left: disclosure document icon -->
  <rect x="80" y="100" width="180" height="220" rx="8" fill="#0d1a2e" stroke="#1a3050" stroke-width="1.5"/>
  <!-- Document lines -->
  <rect x="110" y="140" width="120" height="8" rx="4" fill="#1e4d80"/>
  <rect x="110" y="162" width="90" height="6" rx="3" fill="#142840"/>
  <rect x="110" y="178" width="105" height="6" rx="3" fill="#142840"/>
  <rect x="110" y="194" width="80" height="6" rx="3" fill="#142840"/>
  <!-- Highlighted disclosure line -->
  <rect x="110" y="218" width="120" height="8" rx="4" fill="#1a4060"/>
  <rect x="110" y="238" width="95" height="6" rx="3" fill="#142840"/>
  <rect x="110" y="254" width="110" height="6" rx="3" fill="#142840"/>
  <!-- Checkmark circle on document -->
  <circle cx="170" cy="120" r="16" fill="#0a2040" stroke="#1e5090" stroke-width="1.5"/>
  <path d="M162 120 L167 125 L178 114" stroke="#3a7fd4" stroke-width="2" stroke-linecap="round" stroke-linejoin="round"/>

  <!-- Center: eye/visibility icon — transparency metaphor -->
  <circle cx="600" cy="210" r="90" fill="#030e1c" stroke="#0d2540" stroke-width="1"/>
  <!-- Outer eye shape -->
  <path d="M480 210 Q600 110 720 210 Q600 310 480 210 Z" fill="#030e1c" stroke="#1a4a80" stroke-width="1.5"/>
  <!-- Iris -->
  <circle cx="600" cy="210" r="48" fill="#0a1e35" stroke="#1e5090" stroke-width="1.5"/>
  <!-- Pupil -->
  <circle cx="600" cy="210" r="26" fill="#1a3a70"/>
  <!-- Highlight -->
  <circle cx="614" cy="198" r="7" fill="#3a7fd4" opacity="0.5"/>
  <!-- Radial lines in iris -->
  <line x1="600" y1="162" x2="600" y2="172" stroke="#1e5090" stroke-width="1"/>
  <line x1="600" y1="248" x2="600" y2="258" stroke="#1e5090" stroke-width="1"/>
  <line x1="552" y1="210" x2="562" y2="210" stroke="#1e5090" stroke-width="1"/>
  <line x1="638" y1="210" x2="648" y2="210" stroke="#1e5090" stroke-width="1"/>
  <line x1="566" y1="176" x2="573" y2="183" stroke="#1e5090" stroke-width="1"/>
  <line x1="627" y1="237" x2="634" y2="244" stroke="#1e5090" stroke-width="1"/>
  <line x1="634" y1="176" x2="627" y2="183" stroke="#1e5090" stroke-width="1"/>
  <line x1="573" y1="237" x2="566" y2="244" stroke="#1e5090" stroke-width="1"/>

  <!-- Right side: key facts stacked -->
  <rect x="940" y="100" width="190" height="36" rx="6" fill="#0a1e35" stroke="#1a3a60" stroke-width="1"/>
  <text x="960" y="123" font-family="monospace" font-size="13" fill="#4a8fd4">~5.4% current</text>

  <rect x="940" y="148" width="190" height="36" rx="6" fill="#0a1e35" stroke="#1a3a60" stroke-width="1"/>
  <text x="960" y="171" font-family="monospace" font-size="13" fill="#4a8fd4">variable</text>

  <rect x="940" y="196" width="190" height="36" rx="6" fill="#0a1e35" stroke="#1a3a60" stroke-width="1"/>
  <text x="960" y="219" font-family="monospace" font-size="13" fill="#4a8fd4">withdraw anytime</text>

  <rect x="940" y="244" width="190" height="50" rx="6" fill="#0a1e35" stroke="#1a3a60" stroke-width="1"/>
  <text x="960" y="264" font-family="monospace" font-size="11" fill="#3a7fd4">pursuing ADGM</text>
  <text x="960" y="282" font-family="monospace" font-size="11" fill="#3a7fd4">authorisation</text>

  <!-- Connector lines from center to right -->
  <line x1="690" y1="210" x2="935" y2="118" stroke="#1a3a60" stroke-width="1" stroke-dasharray="4,4"/>
  <line x1="690" y1="210" x2="935" y2="166" stroke="#1a3a60" stroke-width="1" stroke-dasharray="4,4"/>
  <line x1="690" y1="210" x2="935" y2="214" stroke="#1a3a60" stroke-width="1" stroke-dasharray="4,4"/>
  <line x1="690" y1="210" x2="935" y2="269" stroke="#1a3a60" stroke-width="1" stroke-dasharray="4,4"/>

  <!-- Bottom text -->
  <text x="600" y="375" font-family="sans-serif" font-size="15" fill="#2a5080" text-anchor="middle" letter-spacing="2">TRANSPARENCY IS A FEATURE</text>

  <!-- Vault wordmark -->
  <text x="600" y="52" font-family="sans-serif" font-size="22" fill="#3a6fa0" text-anchor="middle" letter-spacing="4" font-weight="300">VAULT</text>
</svg>
