<svg xmlns="http://www.w3.org/2000/svg" width="1200" height="420" viewBox="0 0 1200 420">
  <rect width="1200" height="420" fill="#020810"/>
  <!-- Subtle grid lines -->
  <line x1="0" y1="140" x2="1200" y2="140" stroke="#0d1f3a" stroke-width="1"/>
  <line x1="0" y1="280" x2="1200" y2="280" stroke="#0d1f3a" stroke-width="1"/>
  <line x1="400" y1="0" x2="400" y2="420" stroke="#0d1f3a" stroke-width="1"/>
  <line x1="800" y1="0" x2="800" y2="420" stroke="#0d1f3a" stroke-width="1"/>
  <!-- Accent bar -->
  <rect x="0" y="0" width="6" height="420" fill="#0066FF"/>
  <!-- Rate comparison bars (right side visual) -->
  <g transform="translate(750, 60)">
    <!-- Labels -->
    <text x="0" y="30" font-family="Inter, system-ui, sans-serif" font-size="14" fill="#4a7fb5">Standard bank</text>
    <rect x="0" y="38" width="100" height="22" rx="3" fill="#0d1f3a" stroke="#1e3a5f" stroke-width="1"/>
    <rect x="0" y="38" width="46" height="22" rx="3" fill="#1a3a6b"/>
    <text x="108" y="54" font-family="Inter, system-ui, sans-serif" font-size="14" fill="#6b9fd4">~2.5%</text>
    <text x="0" y="90" font-family="Inter, system-ui, sans-serif" font-size="14" fill="#4a7fb5">StashAway</text>
    <rect x="0" y="98" width="100" height="22" rx="3" fill="#0d1f3a" stroke="#1e3a5f" stroke-width="1"/>
    <rect x="0" y="98" width="72" height="22" rx="3" fill="#1e4a8c"/>
    <text x="108" y="114" font-family="Inter, system-ui, sans-serif" font-size="14" fill="#6b9fd4">3.6%</text>
    <text x="0" y="150" font-family="Inter, system-ui, sans-serif" font-size="14" fill="#4a7fb5">Sarwa Save</text>
    <rect x="0" y="158" width="100" height="22" rx="3" fill="#0d1f3a" stroke="#1e3a5f" stroke-width="1"/>
    <rect x="0" y="158" width="58" height="22" rx="3" fill="#1e4a8c"/>
    <text x="108" y="174" font-family="Inter, system-ui, sans-serif" font-size="14" fill="#6b9fd4">~3.2%</text>
    <text x="0" y="210" font-family="Inter, system-ui, sans-serif" font-size="14" fill="#0066FF" font-weight="600">Vault</text>
    <rect x="0" y="218" width="100" height="22" rx="3" fill="#1a3a6b" stroke="#0066FF" stroke-width="1.5"/>
    <rect x="0" y="218" width="100" height="22" rx="3" fill="#0066FF"/>
    <text x="108" y="234" font-family="Inter, system-ui, sans-serif" font-size="14" fill="#0066FF" font-weight="700">~5.4%</text>
    <!-- Divider -->
    <line x1="0" y1="255" x2="200" y2="255" stroke="#0d1f3a" stroke-width="1"/>
    <text x="0" y="275" font-family="Inter, system-ui, sans-serif" font-size="11" fill="#2a4a70">Variable. Not guaranteed.</text>
  </g>
  <!-- Text -->
  <text x="80" y="140" font-family="Inter, system-ui, sans-serif" font-size="46" font-weight="700" fill="#f0f6ff" letter-spacing="-1">UAE Expat Savings</text>
  <text x="80" y="198" font-family="Inter, system-ui, sans-serif" font-size="46" font-weight="700" fill="#f0f6ff" letter-spacing="-1">in 2026</text>
  <text x="80" y="250" font-family="Inter, system-ui, sans-serif" font-size="20" fill="#9CA3AF">AED or USD? The rate is all that matters.</text>
  <!-- Rate badge -->
  <rect x="80" y="275" width="200" height="34" rx="5" fill="#0d1f3a" stroke="#0066FF" stroke-width="1"/>
  <text x="95" y="297" font-family="Inter, system-ui, sans-serif" font-size="13" fill="#0066FF" font-weight="600">Vault ~5.4% · No lock-in</text>
  <!-- Vault brand -->
  <text x="80" y="390" font-family="Inter, system-ui, sans-serif" font-size="18" fill="#0066FF" font-weight="600" letter-spacing="2">VAULT · VLT.MONEY</text>
  <text x="600" y="408" text-anchor="middle" font-family="Inter, system-ui, sans-serif" font-size="11" fill="rgba(255,255,255,0.18)">vlt.money</text>
</svg>
