<svg xmlns="http://www.w3.org/2000/svg" viewBox="0 0 1200 420" width="1200" height="420">
  <defs>
    <radialGradient id="glow" cx="50%" cy="50%" r="50%">
      <stop offset="0%" stop-color="#0066FF" stop-opacity="0.15"/>
      <stop offset="100%" stop-color="#020810" stop-opacity="0"/>
    </radialGradient>
    <radialGradient id="nodeGlow" cx="50%" cy="50%" r="50%">
      <stop offset="0%" stop-color="#0066FF" stop-opacity="0.6"/>
      <stop offset="100%" stop-color="#0066FF" stop-opacity="0"/>
    </radialGradient>
  </defs>

  <!-- Background -->
  <rect width="1200" height="420" fill="#020810"/>

  <!-- Subtle radial glow center-right -->
  <ellipse cx="800" cy="210" rx="400" ry="280" fill="url(#glow)"/>

  <!-- Skyline silhouette (abstract Dubai/Abu Dhabi) -->
  <g fill="#0d1a2e" opacity="0.8">
    <!-- Building cluster left -->
    <rect x="60" y="280" width="18" height="80"/>
    <rect x="82" y="260" width="24" height="100"/>
    <rect x="110" y="240" width="16" height="120"/>
    <rect x="130" y="255" width="28" height="105"/>
    <rect x="162" y="230" width="14" height="130"/>
    <rect x="180" y="245" width="20" height="115"/>
    <rect x="204" y="270" width="16" height="90"/>

    <!-- Tower with spire (Burj-inspired) -->
    <rect x="240" y="200" width="22" height="160"/>
    <polygon points="251,160 244,200 258,200"/>
    <rect x="236" y="300" width="30" height="60"/>

    <rect x="276" y="250" width="18" height="110"/>
    <rect x="298" y="265" width="14" height="95"/>
    <rect x="316" y="275" width="22" height="85"/>
    <rect x="342" y="245" width="16" height="115"/>
    <rect x="362" y="258" width="26" height="102"/>

    <!-- Building cluster right of center -->
    <rect x="820" y="275" width="20" height="85"/>
    <rect x="844" y="255" width="16" height="105"/>
    <rect x="864" y="240" width="28" height="120"/>
    <rect x="896" y="250" width="18" height="110"/>
    <rect x="918" y="230" width="22" height="130"/>
    <!-- Tall tower right -->
    <rect x="944" y="190" width="20" height="170"/>
    <polygon points="954,150 947,190 961,190"/>
    <rect x="968" y="255" width="16" height="105"/>
    <rect x="988" y="265" width="24" height="95"/>
    <rect x="1016" y="250" width="18" height="110"/>
    <rect x="1038" y="272" width="14" height="88"/>
    <rect x="1056" y="260" width="20" height="100"/>
    <rect x="1080" y="282" width="16" height="78"/>
    <rect x="1100" y="268" width="22" height="92"/>
  </g>

  <!-- Ground line -->
  <rect x="0" y="358" width="1200" height="2" fill="#0d1a2e" opacity="0.6"/>

  <!-- Network nodes and connections (financial network motif) -->
  <!-- Connection lines -->
  <g stroke="#0066FF" stroke-opacity="0.15" stroke-width="1" fill="none">
    <line x1="600" y1="140" x2="480" y2="200"/>
    <line x1="600" y1="140" x2="720" y2="190"/>
    <line x1="600" y1="140" x2="560" y2="260"/>
    <line x1="600" y1="140" x2="650" y2="270"/>
    <line x1="480" y1="200" x2="420" y2="280"/>
    <line x1="480" y1="200" x2="540" y2="310"/>
    <line x1="720" y1="190" x2="780" y2="270"/>
    <line x1="720" y1="190" x2="660" y2="300"/>
    <line x1="560" y1="260" x2="500" y2="320"/>
    <line x1="650" y1="270" x2="700" y2="330"/>
    <line x1="420" y1="280" x2="460" y2="340"/>
    <line x1="780" y1="270" x2="740" y2="330"/>
  </g>

  <!-- Brighter connection lines -->
  <g stroke="#0066FF" stroke-opacity="0.3" stroke-width="1.5" fill="none">
    <line x1="600" y1="140" x2="480" y2="200"/>
    <line x1="600" y1="140" x2="720" y2="190"/>
    <line x1="480" y1="200" x2="720" y2="190"/>
  </g>

  <!-- Network nodes -->
  <!-- Central node -->
  <circle cx="600" cy="140" r="6" fill="#0066FF" opacity="0.9"/>
  <circle cx="600" cy="140" r="12" fill="#0066FF" opacity="0.15"/>

  <!-- Secondary nodes -->
  <circle cx="480" cy="200" r="4" fill="#0066FF" opacity="0.7"/>
  <circle cx="480" cy="200" r="8" fill="#0066FF" opacity="0.1"/>

  <circle cx="720" cy="190" r="4" fill="#0066FF" opacity="0.7"/>
  <circle cx="720" cy="190" r="8" fill="#0066FF" opacity="0.1"/>

  <circle cx="560" cy="260" r="3" fill="#0066FF" opacity="0.5"/>
  <circle cx="650" cy="270" r="3" fill="#0066FF" opacity="0.5"/>
  <circle cx="420" cy="280" r="3" fill="#0066FF" opacity="0.4"/>
  <circle cx="780" cy="270" r="3" fill="#0066FF" opacity="0.4"/>
  <circle cx="540" cy="310" r="2" fill="#0066FF" opacity="0.3"/>
  <circle cx="660" cy="300" r="2" fill="#0066FF" opacity="0.3"/>

  <!-- UAE label -->
  <text x="600" y="95" font-family="Inter, system-ui, sans-serif" font-size="11" font-weight="500" letter-spacing="4" fill="#0066FF" opacity="0.7" text-anchor="middle">ABU DHABI · DUBAI · ADGM</text>

  <!-- Main headline -->
  <text x="600" y="390" font-family="Inter, system-ui, sans-serif" font-size="14" font-weight="400" letter-spacing="1" fill="#4a6080" text-anchor="middle">Financial innovation capital</text>
</svg>
